<mxfile host="app.diagrams.net" modified="2023-05-15T18:58:26.917Z" agent="Mozilla/5.0 (Windows NT 10.0; Win64; x64) AppleWebKit/537.36 (KHTML, like Gecko) Chrome/110.0.0.0 YaBrowser/23.3.3.719 Yowser/2.5 Safari/537.36" etag="JLZbi8-fy3QgYcHnyXZN" version="21.2.9" type="device">
  <diagram name="Страница 1" id="305yBC3JfVN47MHUscln">
    <mxGraphModel dx="1815" dy="553" grid="1" gridSize="10" guides="1" tooltips="1" connect="1" arrows="1" fold="1" page="1" pageScale="1" pageWidth="827" pageHeight="1169" math="0" shadow="0">
      <root>
        <mxCell id="0" />
        <mxCell id="1" parent="0" />
        <mxCell id="evhp176QvKRT5jaHReY_-1" value="Товар" style="rounded=0;whiteSpace=wrap;html=1;container=0;" vertex="1" parent="1">
          <mxGeometry x="240" y="120" width="120" height="40" as="geometry" />
        </mxCell>
        <mxCell id="evhp176QvKRT5jaHReY_-2" value="Название (текст)" style="rounded=0;whiteSpace=wrap;html=1;container=0;" vertex="1" parent="1">
          <mxGeometry x="240" y="180" width="120" height="20" as="geometry" />
        </mxCell>
        <mxCell id="evhp176QvKRT5jaHReY_-3" value="Описание (текст)" style="rounded=0;whiteSpace=wrap;html=1;container=0;" vertex="1" parent="1">
          <mxGeometry x="240" y="200" width="120" height="20" as="geometry" />
        </mxCell>
        <mxCell id="evhp176QvKRT5jaHReY_-4" value="Кол-во на складе&lt;br&gt;(числовой)" style="rounded=0;whiteSpace=wrap;html=1;container=0;" vertex="1" parent="1">
          <mxGeometry x="240" y="220" width="120" height="30" as="geometry" />
        </mxCell>
        <mxCell id="evhp176QvKRT5jaHReY_-5" value="Цена (числовой)" style="rounded=0;whiteSpace=wrap;html=1;container=0;" vertex="1" parent="1">
          <mxGeometry x="240" y="250" width="120" height="20" as="geometry" />
        </mxCell>
        <mxCell id="evhp176QvKRT5jaHReY_-7" value="id (счетчик)" style="rounded=0;whiteSpace=wrap;html=1;container=0;" vertex="1" parent="1">
          <mxGeometry x="240" y="160" width="120" height="20" as="geometry" />
        </mxCell>
        <mxCell id="evhp176QvKRT5jaHReY_-9" value="Категория товара" style="rounded=0;whiteSpace=wrap;html=1;" vertex="1" parent="1">
          <mxGeometry x="440" y="120" width="120" height="40" as="geometry" />
        </mxCell>
        <mxCell id="evhp176QvKRT5jaHReY_-10" value="id (счетчик)" style="rounded=0;whiteSpace=wrap;html=1;container=0;" vertex="1" parent="1">
          <mxGeometry x="440" y="160" width="120" height="20" as="geometry" />
        </mxCell>
        <mxCell id="evhp176QvKRT5jaHReY_-11" value="Название (текст)" style="rounded=0;whiteSpace=wrap;html=1;container=0;" vertex="1" parent="1">
          <mxGeometry x="440" y="180" width="120" height="20" as="geometry" />
        </mxCell>
        <mxCell id="evhp176QvKRT5jaHReY_-12" value="id категории" style="rounded=0;whiteSpace=wrap;html=1;container=0;" vertex="1" parent="1">
          <mxGeometry x="240" y="270" width="120" height="20" as="geometry" />
        </mxCell>
        <mxCell id="evhp176QvKRT5jaHReY_-16" value="" style="endArrow=classic;html=1;rounded=0;exitX=0;exitY=0.5;exitDx=0;exitDy=0;entryX=1;entryY=0.5;entryDx=0;entryDy=0;" edge="1" parent="1" source="evhp176QvKRT5jaHReY_-10" target="evhp176QvKRT5jaHReY_-12">
          <mxGeometry width="50" height="50" relative="1" as="geometry">
            <mxPoint x="380" y="220" as="sourcePoint" />
            <mxPoint x="400" y="270" as="targetPoint" />
            <Array as="points">
              <mxPoint x="400" y="170" />
              <mxPoint x="400" y="280" />
            </Array>
          </mxGeometry>
        </mxCell>
        <mxCell id="evhp176QvKRT5jaHReY_-20" value="Заказ" style="rounded=0;whiteSpace=wrap;html=1;" vertex="1" parent="1">
          <mxGeometry x="40" y="120" width="120" height="40" as="geometry" />
        </mxCell>
        <mxCell id="evhp176QvKRT5jaHReY_-21" value="id (счетчик)" style="rounded=0;whiteSpace=wrap;html=1;container=0;" vertex="1" parent="1">
          <mxGeometry x="40" y="160" width="120" height="20" as="geometry" />
        </mxCell>
        <mxCell id="evhp176QvKRT5jaHReY_-22" value="id товара&amp;nbsp;" style="rounded=0;whiteSpace=wrap;html=1;container=0;" vertex="1" parent="1">
          <mxGeometry x="40" y="180" width="120" height="20" as="geometry" />
        </mxCell>
        <mxCell id="evhp176QvKRT5jaHReY_-23" value="" style="endArrow=classic;html=1;rounded=0;exitX=0;exitY=0.5;exitDx=0;exitDy=0;entryX=1;entryY=0.5;entryDx=0;entryDy=0;" edge="1" parent="1" source="evhp176QvKRT5jaHReY_-7" target="evhp176QvKRT5jaHReY_-22">
          <mxGeometry width="50" height="50" relative="1" as="geometry">
            <mxPoint x="160" y="195" as="sourcePoint" />
            <mxPoint x="170" y="140" as="targetPoint" />
            <Array as="points">
              <mxPoint x="200" y="170" />
              <mxPoint x="200" y="190" />
            </Array>
          </mxGeometry>
        </mxCell>
        <mxCell id="evhp176QvKRT5jaHReY_-28" value="Пользователь" style="rounded=0;whiteSpace=wrap;html=1;" vertex="1" parent="1">
          <mxGeometry x="-160" y="120" width="120" height="40" as="geometry" />
        </mxCell>
        <mxCell id="evhp176QvKRT5jaHReY_-29" value="id (счетчик)" style="rounded=0;whiteSpace=wrap;html=1;container=0;" vertex="1" parent="1">
          <mxGeometry x="-160" y="160" width="120" height="20" as="geometry" />
        </mxCell>
        <mxCell id="evhp176QvKRT5jaHReY_-30" value="ФИО (текст)" style="rounded=0;whiteSpace=wrap;html=1;container=0;" vertex="1" parent="1">
          <mxGeometry x="-160" y="180" width="120" height="20" as="geometry" />
        </mxCell>
        <mxCell id="evhp176QvKRT5jaHReY_-31" value="Номер телефона&lt;br&gt;(числовой)" style="rounded=0;whiteSpace=wrap;html=1;container=0;" vertex="1" parent="1">
          <mxGeometry x="-160" y="200" width="120" height="40" as="geometry" />
        </mxCell>
        <mxCell id="evhp176QvKRT5jaHReY_-32" value="id пользователя&amp;nbsp;" style="rounded=0;whiteSpace=wrap;html=1;container=0;" vertex="1" parent="1">
          <mxGeometry x="40" y="200" width="120" height="20" as="geometry" />
        </mxCell>
        <mxCell id="evhp176QvKRT5jaHReY_-34" value="" style="endArrow=classic;html=1;rounded=0;entryX=0;entryY=0.5;entryDx=0;entryDy=0;" edge="1" parent="1" target="evhp176QvKRT5jaHReY_-32">
          <mxGeometry width="50" height="50" relative="1" as="geometry">
            <mxPoint x="-40" y="170" as="sourcePoint" />
            <mxPoint x="10" y="120" as="targetPoint" />
            <Array as="points">
              <mxPoint y="170" />
              <mxPoint y="210" />
            </Array>
          </mxGeometry>
        </mxCell>
      </root>
    </mxGraphModel>
  </diagram>
</mxfile>
